<svg xmlns="http://www.w3.org/2000/svg" width="168" height="77.057" viewBox="0 0 168 77.057"><defs><style>.a{fill:#176169;}.b{fill:#81ab72;}.c{fill:#a8d46f;}.d{fill:#359668;}</style></defs><g transform="translate(0 -0.017)"><g transform="translate(0 28.139)"><path class="a" d="M7.925,90.946a8.3,8.3,0,0,1-.63-3.621,43.857,43.857,0,0,1,1-8.712c.63-3.306,1.26-6.088,1.784-8.292l.315-1.575c-.525.21-1.26.525-2.257,1A15.626,15.626,0,0,0,5.406,71.37c-.84.577-1.26,1.155-1.26,1.679l.052.577a1.38,1.38,0,0,1-.42,1.05,1.665,1.665,0,0,1-1.05.315,2.911,2.911,0,0,1-1.784-.735A2.4,2.4,0,0,1,0,72.209a5.867,5.867,0,0,1,1.417-3.2A13.843,13.843,0,0,1,6.3,65.177a37.9,37.9,0,0,1,4.881-1.784,9.661,9.661,0,0,0,2.414-.84,1.025,1.025,0,0,1,.367-.052,12.282,12.282,0,0,0,1.994.157c.682,0,1.365,0,2.1-.052s1.522-.052,2.309-.052a18.5,18.5,0,0,1,3.306.315,12.66,12.66,0,0,1,3.411,1.207q.787.394.787.63c0,.262-.735.525-2.2.84-1.47.262-4.2.682-8.082,1.207a2.3,2.3,0,0,0-1.312.472,3.811,3.811,0,0,0-.787,1.994q-.315,1.575-.945,5.038C12.806,84.6,11.546,90.211,10.812,91.1a1.805,1.805,0,0,1-1.417.787C8.765,91.943,8.345,91.576,7.925,90.946Z" transform="translate(0 -57.829)"/><path class="a" d="M38.022,102.315c-1-.315-1.522-1.155-1.522-2.572v-.157a48.082,48.082,0,0,1,2.047-12.176,2.613,2.613,0,0,1,.84-1.417,1.95,1.95,0,0,1,1.155-.42,1.472,1.472,0,0,1,1,.367,1.314,1.314,0,0,1,.42.945,1.4,1.4,0,0,1-.157.63,14.986,14.986,0,0,0-.63,4.3v.21a.666.666,0,0,1-.052.315l1.05-1.312c.577-.735,1.155-1.47,1.784-2.2,2.1-2.467,3.989-3.726,5.563-3.726a2.554,2.554,0,0,1,2.2,1.1,3.988,3.988,0,0,1,.787,2.362,3.34,3.34,0,0,1-.63,1.994,1.113,1.113,0,0,1-.945.525,2.106,2.106,0,0,1-1.312-.787l-.157-.21c-.1-.157-.21-.262-.315-.42a.6.6,0,0,0-.42-.157c-.262,0-.735.315-1.312.892A20.424,20.424,0,0,0,44.95,93.76c-1.05,1.627-2.467,3.989-4.2,7.033-.63,1.1-1.365,1.627-2.152,1.627A1.038,1.038,0,0,1,38.022,102.315Z" transform="translate(-17.344 -68.568)"/><path class="a" d="M72.4,98.683A5.282,5.282,0,0,1,69.2,95.9a9.683,9.683,0,0,1-1-4.514,15.823,15.823,0,0,1,1.155-5.878A14.286,14.286,0,0,1,72.4,80.524c.1-.157.157-.21.157-.315,0-.157-.21-.315-.577-.472s-.577-.315-.577-.472.21-.42.577-.682a3.676,3.676,0,0,1,2.047-.682A6.525,6.525,0,0,1,77.8,79.317,11.628,11.628,0,0,1,81.111,83.1a10.626,10.626,0,0,1,1.365,5.3,11.8,11.8,0,0,1-1.942,6.351,10.126,10.126,0,0,1-2.782,2.992,5.937,5.937,0,0,1-3.516,1.207A4.466,4.466,0,0,1,72.4,98.683ZM75.338,92.6a7.035,7.035,0,0,0,1.679-4.566A8.511,8.511,0,0,0,75.5,83.358c-.21-.315-.367-.472-.525-.472s-.315.21-.42.577a22.618,22.618,0,0,0-1.05,3.621,18.413,18.413,0,0,0-.367,3.621,7.021,7.021,0,0,0,.21,1.994q.236.787.787.787A2.443,2.443,0,0,0,75.338,92.6Z" transform="translate(-32.406 -65.146)"/><path class="a" d="M98.614,117.46a5.672,5.672,0,0,1-1.522-2.467,39.26,39.26,0,0,1-.892-9.709c0-3.411.157-6.718.472-9.972a34.026,34.026,0,0,1,1.155-6.928c.367-1.05.945-1.627,1.679-1.732l.262-.052a2.454,2.454,0,0,1,1.732.84.476.476,0,0,0,.367.157h.157c.052,0,.1-.052.157-.052a3.466,3.466,0,0,1,2.1-.682,4.2,4.2,0,0,1,2.834,1.155,5.15,5.15,0,0,1,1.679,3.2,5.7,5.7,0,0,1,.052.945,10.714,10.714,0,0,1-2.2,6.088,13.018,13.018,0,0,1-4.566,4.2,1.146,1.146,0,0,0-.525,1.1c.052,2.834.157,5.038.315,6.455.157,1.47.315,2.729.525,3.831a16.108,16.108,0,0,1,.315,2.362,1.8,1.8,0,0,1-.21.945,1.869,1.869,0,0,1-.735.682,2.744,2.744,0,0,1-.84.315l-.315.052A2.514,2.514,0,0,1,98.614,117.46ZM102.236,98.3c.577-.84,1.207-1.889,1.889-3.1a6.72,6.72,0,0,0,1.05-3.149,1.453,1.453,0,0,0-.052-.472l-.052-.1c-.315-1-.787-1.47-1.365-1.47a1.489,1.489,0,0,0-.892.367,8.36,8.36,0,0,0-.682.682,1.314,1.314,0,0,0-.262.577c-.1,2.414-.21,4.776-.262,7.085l.262.1Z" transform="translate(-45.711 -69.28)"/><path class="a" d="M124.227,102.075a5.3,5.3,0,0,1-1.155-1.889,9.481,9.481,0,0,1-.472-3.254,26.667,26.667,0,0,1,2.047-9.237,3.408,3.408,0,0,1,1.05-1.522,2.121,2.121,0,0,1,1.312-.472,1.822,1.822,0,0,1,1.312.525,1.975,1.975,0,0,1,.577,1.47c-.052.577-.262,1.942-.577,4.146-.63,4.094-1,7.033-1.155,8.817a2.676,2.676,0,0,1-.525,1.575,1.363,1.363,0,0,1-1.05.525A2.263,2.263,0,0,1,124.227,102.075Z" transform="translate(-58.255 -68.853)"/><path class="a" d="M169.788,95.7a8.71,8.71,0,0,1-.577-3.621,44.155,44.155,0,0,1,.42-5.458c.21-1.312.63-3.936,1.312-7.925a.193.193,0,0,0-.157.052c-.052,0-.1.1-.21.21-.157.21-.84,1.47-1.994,3.779l-3.2,6.246c-1.679,3.1-3.1,5.038-4.356,5.773a3.554,3.554,0,0,1-1.679.472,2.539,2.539,0,0,1-2.047-.945,4,4,0,0,1-.945-2.414l-.052-.682a30.264,30.264,0,0,1,.525-5.038c.367-2.152.84-4.409,1.47-6.823s1.312-4.671,2.047-6.823a34.8,34.8,0,0,1,2.362-5.3c.787-1.365,1.575-2.1,2.362-2.1a1.253,1.253,0,0,1,.472.1.951.951,0,0,1,.682,1.05,12.564,12.564,0,0,1-.787,3.306c-.63,1.889-1.47,5.038-2.467,9.447a29.892,29.892,0,0,0-.945,6.193l1.05-1.837c1.994-3.516,3.779-6.3,5.3-8.45,2.309-3.254,4.2-4.881,5.563-4.881a1.95,1.95,0,0,1,1.155.42,2.072,2.072,0,0,1,.63,1.47,2.741,2.741,0,0,1-.21,1.1,26.571,26.571,0,0,0-.42,2.939c-.21,1.679-.367,3.464-.525,5.353s-.262,3.306-.262,4.094a1.329,1.329,0,0,0,.052.577.633.633,0,0,0,.262-.262l.157-.315c.052-.1.052-.21.1-.262A122.378,122.378,0,0,1,180.39,74.18a27.291,27.291,0,0,1,3.936-5.3,4.493,4.493,0,0,1,2.467-1.417.972.972,0,0,1,.892.472,1.619,1.619,0,0,1,.262.945,2.106,2.106,0,0,1-.157.787,110.971,110.971,0,0,0-5.931,11.022c-1.365,3.044-2.414,5.668-3.2,7.873a54.263,54.263,0,0,1-2.467,5.983,7.186,7.186,0,0,1-1.784,2.309,2.949,2.949,0,0,1-4.619-1.155Z" transform="translate(-74.268 -59.064)"/><path class="a" d="M214.3,98.683a5.282,5.282,0,0,1-3.2-2.782,9.683,9.683,0,0,1-1-4.514,15.823,15.823,0,0,1,1.155-5.878,14.286,14.286,0,0,1,3.044-4.986c.1-.157.157-.21.157-.315,0-.157-.21-.315-.577-.472s-.577-.315-.577-.472.21-.42.577-.682a3.676,3.676,0,0,1,2.047-.682,6.525,6.525,0,0,1,3.779,1.417,11.629,11.629,0,0,1,3.306,3.779,10.626,10.626,0,0,1,1.365,5.3,11.8,11.8,0,0,1-1.942,6.351,10.126,10.126,0,0,1-2.782,2.992,5.937,5.937,0,0,1-3.516,1.207A4.228,4.228,0,0,1,214.3,98.683Zm2.887-6.088a7.035,7.035,0,0,0,1.679-4.566,8.511,8.511,0,0,0-1.522-4.671c-.21-.315-.367-.472-.525-.472s-.315.21-.42.577a22.619,22.619,0,0,0-1.05,3.621,18.412,18.412,0,0,0-.367,3.621,7.022,7.022,0,0,0,.21,1.994q.236.787.787.787A2.443,2.443,0,0,0,217.185,92.6Z" transform="translate(-99.832 -65.146)"/><path class="a" d="M239.822,102.315c-1-.315-1.522-1.155-1.522-2.572v-.157a48.082,48.082,0,0,1,2.047-12.176,2.613,2.613,0,0,1,.84-1.417,1.95,1.95,0,0,1,1.155-.42,1.472,1.472,0,0,1,1,.367,1.314,1.314,0,0,1,.42.945,1.4,1.4,0,0,1-.157.63,14.986,14.986,0,0,0-.63,4.3v.21a.666.666,0,0,1-.052.315l1.05-1.312c.577-.735,1.155-1.47,1.784-2.2,2.1-2.467,3.989-3.726,5.563-3.726a2.554,2.554,0,0,1,2.2,1.1,3.988,3.988,0,0,1,.787,2.362,3.34,3.34,0,0,1-.63,1.994,1.113,1.113,0,0,1-.945.525,2.106,2.106,0,0,1-1.312-.787l-.157-.21c-.1-.157-.21-.262-.315-.42a.6.6,0,0,0-.42-.157c-.262,0-.735.315-1.312.892a20.424,20.424,0,0,0-2.467,3.359c-1.05,1.627-2.467,3.989-4.2,7.033-.63,1.1-1.365,1.627-2.152,1.627A1.231,1.231,0,0,1,239.822,102.315Z" transform="translate(-113.232 -68.568)"/><path class="a" d="M270.1,82.833a63.547,63.547,0,0,1,1-10.444c.63-4.041,1.417-7.715,2.2-11.074a29.824,29.824,0,0,1,2.152-6.56c.525-.735,1.05-1.155,1.627-1.155a1.375,1.375,0,0,1,1,.472,1.771,1.771,0,0,1,.42,1.207l-.052.525c-1.47,7.925-2.467,14.59-3.044,20.049-.262,2.624-.577,4.828-.84,6.718a21.04,21.04,0,0,1-1,4.3c-.367,1-.892,1.47-1.522,1.47C270.677,88.292,270.1,86.455,270.1,82.833Z" transform="translate(-128.342 -53.6)"/><path class="a" d="M296.337,99.464a5.525,5.525,0,0,1-.21-1.784,32.422,32.422,0,0,1,.367-4.671,30.754,30.754,0,0,0,.315-3.884.942.942,0,0,0-.367.262c-.052.1-.157.21-.157.315a1.149,1.149,0,0,1-.157.262,12.321,12.321,0,0,1-2.729,3.306,4.153,4.153,0,0,1-2.467,1.05,3.21,3.21,0,0,1-2.782-1.837,8.927,8.927,0,0,1-1.05-4.671,15.65,15.65,0,0,1,.682-4.461,18.474,18.474,0,0,1,2.257-4.881c1.417-2.257,3.1-3.411,4.933-3.411a6.037,6.037,0,0,1,3.779,1.679,20.655,20.655,0,0,0,.945-3.569c.262-1.26.577-2.624.945-3.936a18.849,18.849,0,0,1,1.207-3.464c.472-.945.945-1.47,1.47-1.47a.666.666,0,0,1,.315.052,1.136,1.136,0,0,1,.787,1.155,2.912,2.912,0,0,1-.157.892l-.052.21q-1.732,9.368-2.362,14.958c-.42,3.726-.682,6.77-.84,9.185s-.367,4.724-.682,7.033a5.94,5.94,0,0,1-1,2.624,1.805,1.805,0,0,1-1.417.787A2.734,2.734,0,0,1,296.337,99.464ZM294.29,85.188a29.131,29.131,0,0,0,2.2-3.779,3.178,3.178,0,0,0,.1-.787,2.825,2.825,0,0,0-.21-1.155q-.315-.787-.945-.787c-.682,0-1.312.472-1.994,1.47a13.665,13.665,0,0,0-1.627,3.516,13.839,13.839,0,0,0-.682,3.989,7.271,7.271,0,0,0,.157,1.575C291.876,88.862,292.873,87.5,294.29,85.188Z" transform="translate(-136.42 -58.684)"/></g><path class="b" d="M91.642,54.463c.21-2.572-3.621-18.527-22.778-21.623-16.217-2.624-19.891,8.45-20.679,11.914a.461.461,0,0,0,.682.525,30.952,30.952,0,0,1,14.38-3.884l2.362-3.726-.1,3.779c5.721.42,12.281,2.782,18.789,9.08l2.519.052-.367,2.257c1.05,1.207,2.1,2.467,3.149,3.884a.672.672,0,0,0,.945.157A3.022,3.022,0,0,0,91.642,54.463Z" transform="translate(-22.888 -15.407)"/><path class="c" d="M136.571,4.784a5.229,5.229,0,0,1-.525.577L138.3,9.14l-4.619-.577a23.684,23.684,0,0,0-2.624,21.1.675.675,0,0,0,1.26,0c6.246-17.9,15.43-20.574,21.623-19.891V5.991l2.047,4.146a16.863,16.863,0,0,1,3.149,1.05,1.087,1.087,0,0,0,1.47-1.312C158.876,4.364,146.228-6.133,136.571,4.784Z" transform="translate(-61.624)"/><path class="d" d="M157.577,30.355a18.973,18.973,0,0,0-12.6,3.884l-.787,3.516-2.519-.577C137.214,41.8,133.907,48.514,132.7,56.7a.443.443,0,0,0,.1.367h0a.531.531,0,0,0,.945-.1c1.05-2.362,4.671-8.66,14.643-10.6l.892-6.088,2.939,5.563c.63-.052,1.207-.052,1.889-.052a27.042,27.042,0,0,0,12.911-3.254l-.262-3.149,1.784,2.2A27.218,27.218,0,0,0,178.1,30.145a.843.843,0,0,0-.892-1.155A71.86,71.86,0,0,1,157.577,30.355Z" transform="translate(-63.054 -13.762)"/></g></svg>